<?xml version="1.0" encoding="UTF-8" standalone="no" ?>
<!DOCTYPE svg PUBLIC "-//W3C//DTD SVG 1.1//EN" "http://www.w3.org/Graphics/SVG/1.1/DTD/svg11.dtd">
<svg xmlns="http://www.w3.org/2000/svg" xmlns:xlink="http://www.w3.org/1999/xlink" version="1.1" width="261.45439999999996" height="247.75" xml:space="preserve">
<desc>Created with Fabric.js 1.6.0-rc.1</desc>
<defs></defs>
<g style="stroke: none; stroke-width: 1; stroke-dasharray: none; stroke-linecap: butt; stroke-linejoin: miter; stroke-miterlimit: 10; fill: none; fill-rule: nonzero; opacity: 1;" transform="translate(10 44) scale(1.55 1.55)" >
  <path d="M 6 124 h 112 c 3.3 0 6 -2.7 6 -6 V 6 c 0 -3.3 -2.7 -6 -6 -6 H 6 C 2.7 0 0 2.7 0 6 v 112 C 0 121.3 2.7 124 6 124 z" style="stroke: none; stroke-width: 1; stroke-dasharray: none; stroke-linecap: butt; stroke-linejoin: miter; stroke-miterlimit: 10; fill: #ebe012; fill-rule: nonzero; opacity: 1;" transform="" stroke-linecap="round" />
</g>
  <g transform="translate(107.63 208.26) scale(0.99 0.99)">
   <text font-family="Broad" font-size="40" font-weight="normal" style="stroke: none; stroke-width: 1; stroke-dasharray: none; stroke-linecap: butt; stroke-linejoin: miter; stroke-miterlimit: 10; fill: #080807; fill-rule: nonzero; opacity: 1;" ><tspan x="-75.08" y="8.98" style="stroke: none; stroke-width: 0; stroke-dasharray: none; stroke-linecap: butt; stroke-linejoin: miter; stroke-miterlimit: 4; fill: #080807; fill-rule: ; opacity: 1;">F</tspan><tspan x="-49.8" y="8.98" style="stroke: none; stroke-width: 0; stroke-dasharray: none; stroke-linecap: butt; stroke-linejoin: miter; stroke-miterlimit: 4; fill: #080807; fill-rule: ; opacity: 1;">l</tspan><tspan x="-24.48" y="8.98" style="stroke: none; stroke-width: 0; stroke-dasharray: none; stroke-linecap: butt; stroke-linejoin: miter; stroke-miterlimit: 4; fill: #080807; fill-rule: ; opacity: 1;">a</tspan><tspan x="7.72" y="8.98" style="stroke: none; stroke-width: 0; stroke-dasharray: none; stroke-linecap: butt; stroke-linejoin: miter; stroke-miterlimit: 4; fill: #080807; fill-rule: ; opacity: 1;">s</tspan><tspan x="41.4" y="8.98" style="stroke: none; stroke-width: 0; stroke-dasharray: none; stroke-linecap: butt; stroke-linejoin: miter; stroke-miterlimit: 4; fill: #080807; fill-rule: ; opacity: 1;">h</tspan></text>
 </g>
<g style="stroke: none; stroke-width: 1; stroke-dasharray: none; stroke-linecap: butt; stroke-linejoin: miter; stroke-miterlimit: 10; fill: #000000; fill-rule: nonzero; opacity: 1;" transform="translate(102 10) scale(0.29 0.29)" >
  <path d="M 158.084 253.36 L 4.96 406.484 c -6.613 6.613 -6.613 17.334 0 23.947 c 6.612 6.613 17.334 6.613 23.947 0 l 153.125 -153.124 L 158.084 253.36 z" style="stroke: none; stroke-width: 1; stroke-dasharray: none; stroke-linecap: butt; stroke-linejoin: miter; stroke-miterlimit: 10; fill: #FFEB64; fill-rule: nonzero; opacity: 1;" transform=" matrix(1 0 0 1 0 0) " stroke-linecap="round" />
  <path d="M 234.283 329.559 L 81.159 482.684 c -6.613 6.613 -6.613 17.334 0 23.947 c 6.612 6.613 17.334 6.613 23.947 0 l 153.125 -153.124 L 234.283 329.559 z" style="stroke: none; stroke-width: 1; stroke-dasharray: none; stroke-linecap: butt; stroke-linejoin: miter; stroke-miterlimit: 10; fill: #FFEB64; fill-rule: nonzero; opacity: 1;" transform=" matrix(1 0 0 1 0 0) " stroke-linecap="round" />
  <polygon points="152.63,144.25 128.68,168.2 170.59,234.06 278.35,341.82 344.21,383.72 368.16,359.78 " style="stroke: none; stroke-width: 1; stroke-dasharray: none; stroke-linecap: butt; stroke-linejoin: miter; stroke-miterlimit: 10; fill: #C7CFE2; fill-rule: nonzero; opacity: 1;" transform="  matrix(1 0 0 1 0 0) "/>
  <polygon points="382.25,70.29 164.6,132.28 152.63,144.25 368.16,359.78 380.13,347.8 442.12,130.16 " style="stroke: none; stroke-width: 1; stroke-dasharray: none; stroke-linecap: butt; stroke-linejoin: miter; stroke-miterlimit: 10; fill: #d5dced; fill-rule: nonzero; opacity: 1;" transform="  matrix(1 0 0 1 0 0) "/>
  <path d="M 504.446 16.791 c 0.28 -4.98 -3.847 -9.109 -8.829 -8.829 c -17.645 0.995 -59.58 8.541 -104.954 53.914 L 190.305 262.235 l 59.867 59.867 l 200.359 -200.359 C 495.906 76.37 503.453 34.436 504.446 16.791 z" style="stroke: none; stroke-width: 1; stroke-dasharray: none; stroke-linecap: butt; stroke-linejoin: miter; stroke-miterlimit: 10; fill: #e4eaf8; fill-rule: nonzero; opacity: 1;" transform=" matrix(1 0 0 1 0 0) " stroke-linecap="round" />
  <path d="M 152.631 252.016 l 29.934 29.934 l 83.815 -83.815 c 3.306 -3.306 3.306 -8.668 0 -11.974 l -2.287 -2.287 c -2.268 -2.268 -5.622 -3.06 -8.664 -2.046 l -41.333 13.777 c -4.988 1.663 -9.52 4.464 -13.238 8.181 L 152.631 252.016 z" style="stroke: none; stroke-width: 1; stroke-dasharray: none; stroke-linecap: butt; stroke-linejoin: miter; stroke-miterlimit: 10; fill: #AFB9D2; fill-rule: nonzero; opacity: 1;" transform=" matrix(1 0 0 1 0 0) " stroke-linecap="round" />
  <path d="M 260.393 359.777 l -29.934 -29.934 l 83.815 -83.815 c 3.306 -3.306 8.668 -3.306 11.974 0 l 2.287 2.287 c 2.268 2.268 3.06 5.622 2.046 8.665 l -13.777 41.333 c -1.663 4.988 -4.464 9.52 -8.181 13.237 L 260.393 359.777 z" style="stroke: none; stroke-width: 1; stroke-dasharray: none; stroke-linecap: butt; stroke-linejoin: miter; stroke-miterlimit: 10; fill: #AFB9D2; fill-rule: nonzero; opacity: 1;" transform=" matrix(1 0 0 1 0 0) " stroke-linecap="round" />
  <rect x="162.65" y="233.84" rx="0" ry="0" width="33.87" height="42.33" style="stroke: none; stroke-width: 1; stroke-dasharray: none; stroke-linecap: butt; stroke-linejoin: miter; stroke-miterlimit: 10; fill: #7F8499; fill-rule: nonzero; opacity: 1;" transform=" matrix(-0.7071 0.7071 -0.7071 -0.7071 486.8781 308.3397) "/>
  <rect x="240.46" y="311.67" rx="0" ry="0" width="33.87" height="42.33" style="stroke: none; stroke-width: 1; stroke-dasharray: none; stroke-linecap: butt; stroke-linejoin: miter; stroke-miterlimit: 10; fill: #7F8499; fill-rule: nonzero; opacity: 1;" transform=" matrix(-0.7071 0.7071 -0.7071 -0.7071 674.746 386.1866) "/>
  <path d="M 511.773 7.648 c -0.41 -3.689 -3.323 -6.603 -7.012 -7.012 c -2.355 -0.26 -58.383 -5.697 -120.237 56.158 l -6.955 6.955 l -215.667 61.427 c -1.3 0.37 -2.483 1.066 -3.438 2.021 l -35.921 35.921 c -2.631 2.63 -3.082 6.735 -1.084 9.874 l 38.489 60.483 l -13.459 13.458 c -3.1 3.1 -3.1 8.126 0 11.225 l 29.934 29.934 c 1.549 1.55 3.581 2.325 5.612 2.325 c 2.031 0 4.063 -0.775 5.612 -2.325 l 6.361 -6.361 l 12.722 12.722 l -6.361 6.361 c -3.1 3.1 -3.1 8.126 0 11.225 c 1.549 1.549 3.581 2.325 5.612 2.325 s 4.063 -0.775 5.612 -2.325 l 6.361 -6.361 l 12.722 12.722 l -6.361 6.361 c -1.489 1.488 -2.325 3.507 -2.325 5.612 s 0.836 4.124 2.325 5.612 l 29.934 29.934 c 1.549 1.549 3.581 2.325 5.612 2.325 s 4.063 -0.775 5.612 -2.325 l 13.458 -13.458 l 60.483 38.489 c 1.31 0.834 2.789 1.24 4.259 1.24 c 2.05 0 4.083 -0.793 5.615 -2.325 l 35.921 -35.921 c 0.956 -0.956 1.651 -2.139 2.021 -3.438 l 61.427 -215.667 l 6.955 -6.955 C 517.47 66.031 512.035 10.003 511.773 7.648 z M 168.231 139.878 l 186.256 -53.05 l -88.637 88.636 l -0.375 -0.375 c -2.126 -2.126 -5.272 -2.868 -8.123 -1.918 l -49.228 16.409 l -44.8 -44.8 L 168.231 139.878 z M 205.983 247.306 l -18.709 -18.709 l 22.996 -22.996 l 47.449 -15.817 l 2.892 2.892 L 205.983 247.306 z M 194.758 198.664 l -23.312 23.312 l -9.895 -15.549 l 20.484 -20.484 L 194.758 198.664 z M 152.102 156.008 l 18.709 18.709 l -17.989 17.989 L 138.27 169.84 L 152.102 156.008 z M 163.327 252.545 l 12.722 -12.722 l 18.709 18.709 l -12.722 12.722 L 163.327 252.545 z M 229.182 294.451 l 114.123 -114.123 c 3.1 -3.1 3.1 -8.126 0 -11.225 c -3.1 -3.1 -8.126 -3.1 -11.225 0 L 217.956 283.227 l -12.722 -12.722 l 72.216 -72.216 c 1.489 -1.488 2.325 -3.507 2.325 -5.612 c 0 -2.105 -0.836 -4.124 -2.325 -5.612 l -0.375 -0.375 L 387.263 76.503 c 0.008 -0.008 0.016 -0.016 0.024 -0.024 l 8.461 -8.461 c 43.885 -43.885 84.47 -50.718 100.279 -51.59 c -0.793 15.775 -7.494 56.09 -51.638 100.233 l -8.455 8.454 c -0.012 0.012 -0.024 0.023 -0.036 0.036 L 325.717 235.332 l -0.375 -0.375 c -3.1 -3.1 -8.126 -3.1 -11.225 0 l -65.853 65.853 l -0.001 0.001 l -0.001 0.001 l -6.361 6.361 L 229.182 294.451 z M 290.433 340.961 l 23.312 -23.312 l 12.722 12.722 l -20.484 20.484 L 290.433 340.961 z M 306.808 302.138 l -22.996 22.996 l -18.709 -18.709 l 54.63 -54.63 l 2.891 2.892 L 306.808 302.138 z M 259.864 349.081 l -18.709 -18.709 l 12.722 -12.722 l 18.709 18.709 L 259.864 349.081 z M 342.568 374.139 l -22.866 -14.551 l 17.989 -17.989 l 18.709 18.709 L 342.568 374.139 z M 372.531 344.178 l -4.904 4.904 l -44.8 -44.8 l 16.409 -49.228 c 0.95 -2.852 0.208 -5.996 -1.918 -8.123 l -0.375 -0.375 l 88.637 -88.637 L 372.531 344.178 z" style="stroke: none; stroke-width: 1; stroke-dasharray: none; stroke-linecap: butt; stroke-linejoin: miter; stroke-miterlimit: 10; fill: rgb(0,0,0); fill-rule: nonzero; opacity: 1;" transform=" matrix(1 0 0 1 0 0) " stroke-linecap="round" />
  <path d="M 412.514 84.696 c 4.524 -0.491 8.607 0.824 11.489 3.708 c 2.884 2.883 4.2 6.964 3.708 11.49 c -0.473 4.358 2.675 8.274 7.034 8.748 c 0.291 0.032 0.58 0.047 0.867 0.047 c 3.999 0 7.44 -3.014 7.881 -7.081 c 1.006 -9.267 -2.007 -18.171 -8.266 -24.429 c -6.259 -6.26 -15.16 -9.27 -24.43 -8.266 c -4.358 0.474 -7.507 4.39 -7.034 8.749 C 404.239 82.02 408.154 85.167 412.514 84.696 z" style="stroke: none; stroke-width: 1; stroke-dasharray: none; stroke-linecap: butt; stroke-linejoin: miter; stroke-miterlimit: 10; fill: rgb(0,0,0); fill-rule: nonzero; opacity: 1;" transform=" matrix(1 0 0 1 0 0) " stroke-linecap="round" />
  <path d="M 79.478 340.505 c 2.031 0 4.063 -0.775 5.612 -2.325 l 52.253 -52.253 c 3.1 -3.1 3.1 -8.126 0 -11.225 c -3.1 -3.1 -8.126 -3.1 -11.225 0 l -52.253 52.253 c -3.1 3.1 -3.1 8.126 0 11.225 C 75.415 339.731 77.446 340.505 79.478 340.505 z" style="stroke: none; stroke-width: 1; stroke-dasharray: none; stroke-linecap: butt; stroke-linejoin: miter; stroke-miterlimit: 10; fill: rgb(0,0,0); fill-rule: nonzero; opacity: 1;" transform=" matrix(1 0 0 1 0 0) " stroke-linecap="round" />
  <path d="M 61.143 350.903 c -3.1 -3.1 -8.126 -3.1 -11.225 0 c -3.299 3.298 -7.683 5.115 -12.347 5.115 c -4.665 0 -9.05 -1.816 -12.347 -5.115 s -5.115 -7.683 -5.115 -12.347 s 1.816 -9.05 5.115 -12.347 c 3.1 -3.1 3.1 -8.126 0 -11.225 c -3.1 -3.1 -8.126 -3.1 -11.225 0 c -12.998 12.998 -12.998 34.148 0 47.146 c 6.499 6.499 15.036 9.748 23.572 9.748 c 8.537 0 17.074 -3.249 23.573 -9.748 C 64.243 359.028 64.243 354.002 61.143 350.903 z" style="stroke: none; stroke-width: 1; stroke-dasharray: none; stroke-linecap: butt; stroke-linejoin: miter; stroke-miterlimit: 10; fill: rgb(0,0,0); fill-rule: nonzero; opacity: 1;" transform=" matrix(1 0 0 1 0 0) " stroke-linecap="round" />
  <path d="M 15.025 434.542 l -8.467 8.467 c -3.1 3.1 -3.1 8.126 0 11.225 c 1.549 1.549 3.581 2.325 5.612 2.325 s 4.063 -0.775 5.612 -2.325 l 8.467 -8.467 c 3.1 -3.1 3.1 -8.126 0 -11.225 C 23.151 431.442 18.125 431.442 15.025 434.542 z" style="stroke: none; stroke-width: 1; stroke-dasharray: none; stroke-linecap: butt; stroke-linejoin: miter; stroke-miterlimit: 10; fill: rgb(0,0,0); fill-rule: nonzero; opacity: 1;" transform=" matrix(1 0 0 1 0 0) " stroke-linecap="round" />
  <path d="M 161.715 299.076 c -3.1 -3.1 -8.126 -3.1 -11.225 0 L 40.425 409.142 c -3.1 3.1 -3.1 8.126 0 11.225 c 1.549 1.549 3.581 2.325 5.612 2.325 s 4.063 -0.775 5.612 -2.325 l 110.066 -110.066 C 164.816 307.202 164.816 302.176 161.715 299.076 z" style="stroke: none; stroke-width: 1; stroke-dasharray: none; stroke-linecap: butt; stroke-linejoin: miter; stroke-miterlimit: 10; fill: rgb(0,0,0); fill-rule: nonzero; opacity: 1;" transform=" matrix(1 0 0 1 0 0) " stroke-linecap="round" />
  <path d="M 43.557 304.585 c 2.031 0 4.063 -0.775 5.612 -2.325 l 5.987 -5.987 c 3.1 -3.1 3.1 -8.126 0 -11.225 c -3.1 -3.1 -8.126 -3.1 -11.225 0 l -5.987 5.987 c -3.1 3.1 -3.1 8.126 0 11.225 C 39.494 303.809 41.526 304.585 43.557 304.585 z" style="stroke: none; stroke-width: 1; stroke-dasharray: none; stroke-linecap: butt; stroke-linejoin: miter; stroke-miterlimit: 10; fill: rgb(0,0,0); fill-rule: nonzero; opacity: 1;" transform=" matrix(1 0 0 1 0 0) " stroke-linecap="round" />
  <path d="M 226.689 374.248 L 174.437 426.5 c -3.1 3.1 -3.1 8.126 0 11.225 c 1.549 1.549 3.581 2.325 5.612 2.325 s 4.063 -0.775 5.612 -2.325 l 52.253 -52.253 c 3.1 -3.1 3.1 -8.126 0 -11.225 C 234.815 371.148 229.789 371.148 226.689 374.248 z" style="stroke: none; stroke-width: 1; stroke-dasharray: none; stroke-linecap: butt; stroke-linejoin: miter; stroke-miterlimit: 10; fill: rgb(0,0,0); fill-rule: nonzero; opacity: 1;" transform=" matrix(1 0 0 1 0 0) " stroke-linecap="round" />
  <path d="M 186.411 486.369 c -3.299 3.298 -7.683 5.115 -12.347 5.115 c -4.665 0 -9.05 -1.816 -12.347 -5.115 s -5.115 -7.683 -5.115 -12.347 c 0 -4.664 1.816 -9.05 5.115 -12.347 c 3.1 -3.1 3.1 -8.126 0 -11.225 c -3.1 -3.1 -8.126 -3.1 -11.225 0 c -12.998 12.998 -12.998 34.148 0 47.146 c 6.499 6.499 15.036 9.748 23.572 9.748 c 8.538 0 17.074 -3.249 23.573 -9.748 c 3.1 -3.1 3.1 -8.126 0 -11.225 C 194.537 483.269 189.511 483.269 186.411 486.369 z" style="stroke: none; stroke-width: 1; stroke-dasharray: none; stroke-linecap: butt; stroke-linejoin: miter; stroke-miterlimit: 10; fill: rgb(0,0,0); fill-rule: nonzero; opacity: 1;" transform=" matrix(1 0 0 1 0 0) " stroke-linecap="round" />
  <path d="M 66.851 485.341 l -8.467 8.467 c -3.1 3.1 -3.1 8.126 0 11.225 c 1.549 1.549 3.581 2.325 5.612 2.325 c 2.031 0 4.063 -0.775 5.612 -2.325 l 8.467 -8.467 c 3.1 -3.1 3.1 -8.126 0 -11.225 C 74.977 482.241 69.951 482.241 66.851 485.341 z" style="stroke: none; stroke-width: 1; stroke-dasharray: none; stroke-linecap: butt; stroke-linejoin: miter; stroke-miterlimit: 10; fill: rgb(0,0,0); fill-rule: nonzero; opacity: 1;" transform=" matrix(1 0 0 1 0 0) " stroke-linecap="round" />
  <path d="M 213.542 349.876 c -3.1 -3.1 -8.126 -3.1 -11.225 0 L 92.252 459.941 c -3.1 3.1 -3.1 8.126 0 11.225 c 1.549 1.549 3.581 2.325 5.612 2.325 s 4.063 -0.775 5.612 -2.325 L 213.542 361.1 C 216.642 358.002 216.642 352.976 213.542 349.876 z" style="stroke: none; stroke-width: 1; stroke-dasharray: none; stroke-linecap: butt; stroke-linejoin: miter; stroke-miterlimit: 10; fill: rgb(0,0,0); fill-rule: nonzero; opacity: 1;" transform=" matrix(1 0 0 1 0 0) " stroke-linecap="round" />
  <path d="M 216.344 456.434 l -5.987 5.987 c -3.1 3.1 -3.1 8.126 0 11.225 c 1.549 1.549 3.581 2.325 5.612 2.325 c 2.031 0 4.063 -0.775 5.612 -2.325 l 5.987 -5.987 c 3.1 -3.1 3.1 -8.126 0 -11.225 C 224.47 453.335 219.444 453.335 216.344 456.434 z" style="stroke: none; stroke-width: 1; stroke-dasharray: none; stroke-linecap: butt; stroke-linejoin: miter; stroke-miterlimit: 10; fill: rgb(0,0,0); fill-rule: nonzero; opacity: 1;" transform=" matrix(1 0 0 1 0 0) " stroke-linecap="round" />
</g>
</svg>